<svg width="48" height="48" viewBox="0 0 48 48" fill="none" xmlns="http://www.w3.org/2000/svg">
<path d="M42 19C43.6569 19 45 20.3431 45 22C45 23.6569 43.6569 25 42 25C41.4982 25 41.026 24.8751 40.6104 24.6572L33.3838 34.1826C33.7433 34.6534 33.9678 35.2322 33.9961 35.8633L39.0225 35.6348C39.2027 34.1502 40.4668 33 42 33C43.6569 33 45 34.3431 45 36C45 37.6569 43.6569 39 42 39C40.5603 39 39.3579 37.9857 39.0674 36.6328L33.8711 36.8682C33.4987 38.1015 32.3548 39 31 39C30.2061 39 29.4868 38.689 28.9502 38.1855L22.9502 41.459C22.9822 41.6345 23 41.8152 23 42C23 43.6569 21.6569 45 20 45C18.3431 45 17 43.6569 17 42C17 40.3431 18.3431 39 20 39C21.1143 39 22.0842 39.6089 22.6016 40.5107L28.3389 37.3809C28.1238 36.9672 28 36.4984 28 36C28 35.2417 28.2831 34.5506 28.7471 34.0225L25.2041 28.708C24.8071 28.8928 24.3662 29 23.8994 29C22.1869 29 20.798 27.6118 20.7979 25.8994C20.7979 24.1868 22.1868 22.7979 23.8994 22.7979C25.6119 22.798 27 24.1869 27 25.8994C26.9999 26.7847 26.6263 27.5806 26.0312 28.1455L29.5264 33.3877C29.9618 33.1416 30.4642 33 31 33C31.6101 33 32.1768 33.1833 32.6504 33.4961L39.8154 24.0518C39.3111 23.515 39 22.7946 39 22C39 20.3431 40.3431 19 42 19ZM26.8057 11.752H18.2783V28.8057H16.7285V11.752H15.1777V28.8057H13.627V11.752H12.0771V28.8057H10.5273V11.752H2V10.2021H26.8057V11.752ZM26.8057 8.65137H2V7.10059H26.8057V8.65137ZM26.8057 5.55078H2V4H26.8057V5.55078Z" fill="black"/>
</svg>
